<?xml version="1.0" encoding="utf-8"?>
<!-- Generator: Adobe Illustrator 23.0.3, SVG Export Plug-In . SVG Version: 6.00 Build 0)  -->
<svg version="1.1" id="Layer_1" xmlns="http://www.w3.org/2000/svg" xmlns:xlink="http://www.w3.org/1999/xlink" x="0px" y="0px"
	 viewBox="0 0 597 597" style="enable-background:new 0 0 597 597;" xml:space="preserve">
<style type="text/css">
	.st0{fill:url(#SVGID_1_);}
</style>
<linearGradient id="SVGID_1_" gradientUnits="userSpaceOnUse" x1="17.99" y1="292.8352" x2="577.6775" y2="292.8352">
	<stop  offset="0" style="stop-color:#804D85"/>
	<stop  offset="1" style="stop-color:#41BDBD"/>
</linearGradient>
<path class="st0" d="M566.4,250.4c-6.2,0-11.2,5-11.2,11.2v51.2H40.5V111.7c0-6.2-5-11.2-11.2-11.2s-11.2,5-11.2,11.2V474
	c0,6.2,5,11.2,11.2,11.2s11.2-5,11.2-11.2v-76.2h514.7V474c0,6.2,5,11.2,11.2,11.2c6.2,0,11.2-5,11.2-11.2V261.6
	C577.7,255.4,572.6,250.4,566.4,250.4z M40.5,375.3v-40h514.7v40H40.5z M135,297.8c33.8,0,61.2-27.4,61.2-61.2s-27.4-61.2-61.2-61.2
	s-61.2,27.4-61.2,61.2C73.9,270.4,101.3,297.8,135,297.8z M135,197.9c21.4,0,38.7,17.3,38.7,38.7c0,21.4-17.3,38.7-38.7,38.7
	c-21.4,0-38.7-17.3-38.7-38.7C96.3,215.2,113.7,197.9,135,197.9z M227.4,297.8h287.3c6.2,0,11.2-5,11.2-11.2
	c-0.1-68.3-55.4-123.6-123.7-123.7H227.4c-6.2,0-11.2,5-11.2,11.2v112.4C216.2,292.8,221.2,297.8,227.4,297.8z M238.7,185.4h163.7
	c51.5,0.1,94.8,38.8,100.6,89.9H238.7V185.4z"/>
</svg>
