<?xml version="1.0" encoding="UTF-8" standalone="no"?> <svg width="512" height="512" viewBox="0 0 512 512" fill="none" xmlns="http://www.w3.org/2000/svg">
<path d="M128 432H120C117.878 432 115.843 431.157 114.343 429.657C112.843 428.157 112 426.122 112 424C112 421.878 112.843 419.843 114.343 418.343C115.843 416.843 117.878 416 120 416H128C130.122 416 132.157 416.843 133.657 418.343C135.157 419.843 136 421.878 136 424C136 426.122 135.157 428.157 133.657 429.657C132.157 431.157 130.122 432 128 432ZM176 448H136C133.878 448 131.843 448.843 130.343 450.343C128.843 451.843 128 453.878 128 456C128 458.122 128.843 460.157 130.343 461.657C131.843 463.157 133.878 464 136 464H176C178.122 464 180.157 463.157 181.657 461.657C183.157 460.157 184 458.122 184 456C184 453.878 183.157 451.843 181.657 450.343C180.157 448.843 178.122 448 176 448ZM496 440C495.983 454.847 490.078 469.081 479.58 479.58C469.081 490.078 454.847 495.983 440 496H72C57.1479 496 42.9041 490.1 32.402 479.598C21.9 469.096 16 454.852 16 440C16 425.148 21.9 410.904 32.402 400.402C42.9041 389.9 57.1479 384 72 384H139.032C120.167 370.371 106.762 350.478 101.214 327.875C95.6658 305.273 98.3355 281.434 108.746 260.619L114.094 249.925C122.754 232.593 124.933 212.737 120.239 193.94C119.868 192.456 119.931 190.896 120.419 189.446C120.907 187.997 121.801 186.717 122.995 185.76C124.188 184.803 125.631 184.208 127.152 184.045C128.674 183.883 130.21 184.161 131.578 184.845L173.261 205.687L180.551 194.752C203.25 160.661 213.224 119.668 208.724 78.959L208.049 72.883C207.89 71.4531 208.12 70.0069 208.714 68.6967C209.308 67.3864 210.245 66.2607 211.425 65.4379C212.605 64.6151 213.985 64.1258 215.42 64.0214C216.855 63.9171 218.291 64.2016 219.578 64.845L252.9 81.5C265.415 87.7646 277.189 95.4124 288 104.3V80C288 77.8783 288.843 75.8434 290.343 74.3431C291.843 72.8429 293.878 72 296 72C298.122 72 300.157 72.8429 301.657 74.3431C303.157 75.8434 304 77.8783 304 80V119.089C313.809 129.265 322.435 140.52 329.712 152.637C336.849 164.55 340.689 178.147 340.836 192.034C340.984 205.92 337.435 219.596 330.553 231.658C327.906 236.251 326.71 241.537 327.122 246.821C327.534 252.106 329.535 257.143 332.861 261.27L344 275.193L356.043 260.14C366.08 247.607 380.209 239.009 395.952 235.852L414.431 232.152C415.861 231.865 417.342 231.975 418.714 232.47C420.086 232.964 421.297 233.824 422.216 234.956C423.134 236.089 423.726 237.451 423.927 238.896C424.127 240.34 423.929 241.812 423.354 243.152L406.424 282.652C402.173 292.539 399.987 303.19 400 313.952C400.069 340.177 389.75 365.362 371.3 384H440C454.847 384.017 469.081 389.922 479.58 400.42C490.078 410.919 495.983 425.153 496 440V440ZM155.762 375.792L170.125 384H193.9L185.271 376.81C171.955 365.712 163.213 350.082 160.727 332.928C158.24 315.773 162.184 298.304 171.8 283.882C172.927 282.188 173.688 280.278 174.035 278.273C174.382 276.269 174.307 274.214 173.815 272.24L168.241 249.94C167.841 248.337 167.947 246.65 168.544 245.109C169.141 243.569 170.201 242.252 171.577 241.338C172.953 240.424 174.579 239.958 176.23 240.005C177.882 240.052 179.478 240.609 180.8 241.6L193.586 251.189C204.767 259.618 212.409 271.907 215.022 285.663L221.522 279.163C224.854 275.848 227.496 271.905 229.295 267.562C231.093 263.219 232.013 258.563 232 253.862V208C232 206.493 232.425 205.016 233.227 203.74C234.03 202.464 235.176 201.44 236.535 200.787C237.894 200.134 239.409 199.879 240.907 200.05C242.404 200.22 243.823 200.811 245 201.753L260.744 214.353C269.268 221.14 276.147 229.766 280.867 239.586C285.587 249.406 288.025 260.166 288 271.062C288.03 285.514 292.716 299.571 301.363 311.15L306.395 317.858L332.422 304.845C333.642 304.235 334.997 303.947 336.359 304.008C337.722 304.07 339.046 304.478 340.206 305.195C341.366 305.912 342.323 306.913 342.987 308.104C343.651 309.295 344 310.636 344 312C344.075 338.81 333.778 364.609 315.264 384H348.687L359.437 373.249C367.249 365.48 373.442 356.238 377.658 346.059C381.874 335.88 384.03 324.966 384 313.949C383.985 301.021 386.611 288.226 391.717 276.349L402.656 250.825L399.09 251.539C387.038 253.956 376.221 260.539 368.537 270.133L350.247 293C349.498 293.937 348.547 294.693 347.466 295.213C346.384 295.733 345.2 296.003 344 296.003C342.8 296.003 341.616 295.733 340.534 295.213C339.453 294.693 338.502 293.937 337.753 293L320.367 271.268C315.027 264.641 311.815 256.554 311.154 248.069C310.492 239.584 312.411 231.098 316.66 223.723C322.135 214.129 324.958 203.252 324.84 192.207C324.723 181.162 321.668 170.347 315.991 160.872C312.356 154.827 308.351 149.013 304 143.461V160C304 162.122 303.157 164.157 301.657 165.657C300.157 167.157 298.122 168 296 168C293.878 168 291.843 167.157 290.343 165.657C288.843 164.157 288 162.122 288 160V125.709C275.512 113.656 261.263 103.574 245.741 95.809L225.373 85.631C228.111 127.357 217.038 168.824 193.863 203.631L182.656 220.442C181.574 222.064 179.937 223.236 178.053 223.736C176.168 224.236 174.166 224.031 172.422 223.159L138.371 206.13C139.727 223.703 136.282 241.314 128.404 257.08L123.057 267.775C113.67 286.548 111.829 308.204 117.911 328.293C123.994 348.382 137.538 365.378 155.762 375.792V375.792ZM185.11 292.757C177.685 303.895 174.64 317.385 176.562 330.633C178.483 343.88 185.235 355.949 195.518 364.519L218.9 384H292.691L302.063 374.627C315.433 361.332 324.175 344.091 326.996 325.448L307.582 335.155C305.906 335.994 303.988 336.218 302.164 335.788C300.34 335.357 298.724 334.3 297.6 332.8L288.562 320.75C277.845 306.398 272.037 288.974 272 271.062C272.02 262.566 270.119 254.176 266.438 246.518C262.758 238.861 257.394 232.135 250.747 226.843L248 224.643V253.859C248.019 260.663 246.687 267.402 244.084 273.688C241.48 279.974 237.656 285.681 232.832 290.479L213.657 309.654C212.538 310.773 211.113 311.535 209.562 311.843C208.01 312.152 206.402 311.994 204.94 311.389C203.478 310.784 202.229 309.759 201.349 308.444C200.47 307.128 200.001 305.582 200 304V296.018C199.976 286.014 196.228 276.378 189.486 268.987C190.405 273.039 190.491 277.235 189.738 281.321C188.986 285.407 187.411 289.298 185.11 292.757V292.757ZM256.861 480C252.135 475.38 248.26 469.964 245.414 464H208C205.878 464 203.843 463.157 202.343 461.657C200.843 460.157 200 458.122 200 456C200 453.878 200.843 451.843 202.343 450.343C203.843 448.843 205.878 448 208 448H240.581C239.806 442.695 239.806 437.305 240.581 432H160C157.878 432 155.843 431.157 154.343 429.657C152.843 428.157 152 426.122 152 424C152 421.878 152.843 419.843 154.343 418.343C155.843 416.843 157.878 416 160 416H245.414C248.26 410.036 252.135 404.62 256.861 400H72C65.7934 400 59.6722 401.447 54.1216 404.224C48.571 407.001 43.7436 411.033 40.022 416H88C90.1217 416 92.1566 416.843 93.6569 418.343C95.1571 419.843 96 421.878 96 424C96 426.122 95.1571 428.157 93.6569 429.657C92.1566 431.157 90.1217 432 88 432H32.805C31.7317 437.279 31.7317 442.721 32.805 448H104C106.122 448 108.157 448.843 109.657 450.343C111.157 451.843 112 453.878 112 456C112 458.122 111.157 460.157 109.657 461.657C108.157 463.157 106.122 464 104 464H40.022C43.7436 468.967 48.571 472.999 54.1216 475.776C59.6722 478.553 65.7934 480 72 480H256.861ZM336 440C336 432.089 333.654 424.355 329.259 417.777C324.864 411.199 318.616 406.072 311.307 403.045C303.998 400.017 295.956 399.225 288.196 400.769C280.437 402.312 273.31 406.122 267.716 411.716C262.122 417.31 258.312 424.437 256.769 432.196C255.225 439.956 256.017 447.998 259.045 455.307C262.072 462.616 267.199 468.864 273.777 473.259C280.355 477.654 288.089 480 296 480C306.605 479.988 316.772 475.77 324.271 468.271C331.77 460.772 335.988 450.605 336 440V440ZM400.861 480C396.135 475.38 392.26 469.964 389.414 464H376C373.878 464 371.843 463.157 370.343 461.657C368.843 460.157 368 458.122 368 456C368 453.878 368.843 451.843 370.343 450.343C371.843 448.843 373.878 448 376 448H384.581C383.412 439.967 384.012 431.776 386.341 424H376C373.878 424 371.843 423.157 370.343 421.657C368.843 420.157 368 418.122 368 416C368 413.878 368.843 411.843 370.343 410.343C371.843 408.843 373.878 408 376 408H392C392.645 408.003 393.287 408.083 393.913 408.24C395.961 405.278 398.287 402.519 400.861 400H335.139C340.476 405.205 344.717 411.426 347.613 418.296C350.508 425.165 352 432.545 352 440C352 447.455 350.508 454.835 347.613 461.704C344.717 468.574 340.476 474.795 335.139 480H400.861ZM480 440C480 432.089 477.654 424.355 473.259 417.777C468.864 411.199 462.616 406.072 455.307 403.045C447.998 400.017 439.956 399.225 432.196 400.769C424.437 402.312 417.31 406.122 411.716 411.716C406.122 417.31 402.312 424.437 400.769 432.196C399.225 439.956 400.017 447.998 403.045 455.307C406.072 462.616 411.199 468.864 417.777 473.259C424.355 477.654 432.089 480 440 480C450.605 479.988 460.772 475.77 468.271 468.271C475.77 460.772 479.988 450.605 480 440V440ZM264 192C266.122 192 268.157 191.157 269.657 189.657C271.157 188.157 272 186.122 272 184V152C272 149.878 271.157 147.843 269.657 146.343C268.157 144.843 266.122 144 264 144C261.878 144 259.843 144.843 258.343 146.343C256.843 147.843 256 149.878 256 152V184C256 186.122 256.843 188.157 258.343 189.657C259.843 191.157 261.878 192 264 192ZM296 216C298.122 216 300.157 215.157 301.657 213.657C303.157 212.157 304 210.122 304 208V192C304 189.878 303.157 187.843 301.657 186.343C300.157 184.843 298.122 184 296 184C293.878 184 291.843 184.843 290.343 186.343C288.843 187.843 288 189.878 288 192V208C288 210.122 288.843 212.157 290.343 213.657C291.843 215.157 293.878 216 296 216ZM152 112V128C152 130.122 152.843 132.157 154.343 133.657C155.843 135.157 157.878 136 160 136C162.122 136 164.157 135.157 165.657 133.657C167.157 132.157 168 130.122 168 128V112C168 109.878 167.157 107.843 165.657 106.343C164.157 104.843 162.122 104 160 104C157.878 104 155.843 104.843 154.343 106.343C152.843 107.843 152 109.878 152 112ZM136 88C136 85.8783 135.157 83.8434 133.657 82.3431C132.157 80.8429 130.122 80 128 80C125.878 80 123.843 80.8429 122.343 82.3431C120.843 83.8434 120 85.8783 120 88V112C120 114.122 120.843 116.157 122.343 117.657C123.843 119.157 125.878 120 128 120C130.122 120 132.157 119.157 133.657 117.657C135.157 116.157 136 114.122 136 112V88ZM80 240C80 237.878 79.1571 235.843 77.6569 234.343C76.1566 232.843 74.1217 232 72 232C69.8783 232 67.8434 232.843 66.3431 234.343C64.8429 235.843 64 237.878 64 240V264C64 266.122 64.8429 268.157 66.3431 269.657C67.8434 271.157 69.8783 272 72 272C74.1217 272 76.1566 271.157 77.6569 269.657C79.1571 268.157 80 266.122 80 264V240ZM40 256C37.8783 256 35.8434 256.843 34.3431 258.343C32.8429 259.843 32 261.878 32 264V288C32 290.122 32.8429 292.157 34.3431 293.657C35.8434 295.157 37.8783 296 40 296C42.1217 296 44.1566 295.157 45.6569 293.657C47.1571 292.157 48 290.122 48 288V264C48 261.878 47.1571 259.843 45.6569 258.343C44.1566 256.843 42.1217 256 40 256V256ZM128 136C125.878 136 123.843 136.843 122.343 138.343C120.843 139.843 120 141.878 120 144V152C120 154.122 120.843 156.157 122.343 157.657C123.843 159.157 125.878 160 128 160C130.122 160 132.157 159.157 133.657 157.657C135.157 156.157 136 154.122 136 152V144C136 141.878 135.157 139.843 133.657 138.343C132.157 136.843 130.122 136 128 136ZM72 288C69.8783 288 67.8434 288.843 66.3431 290.343C64.8429 291.843 64 293.878 64 296V312C64 314.122 64.8429 316.157 66.3431 317.657C67.8434 319.157 69.8783 320 72 320C74.1217 320 76.1566 319.157 77.6569 317.657C79.1571 316.157 80 314.122 80 312V296C80 293.878 79.1571 291.843 77.6569 290.343C76.1566 288.843 74.1217 288 72 288ZM376 152V184C376 186.122 376.843 188.157 378.343 189.657C379.843 191.157 381.878 192 384 192C386.122 192 388.157 191.157 389.657 189.657C391.157 188.157 392 186.122 392 184V152C392 149.878 391.157 147.843 389.657 146.343C388.157 144.843 386.122 144 384 144C381.878 144 379.843 144.843 378.343 146.343C376.843 147.843 376 149.878 376 152ZM424 128C424 125.878 423.157 123.843 421.657 122.343C420.157 120.843 418.122 120 416 120C413.878 120 411.843 120.843 410.343 122.343C408.843 123.843 408 125.878 408 128V160C408 162.122 408.843 164.157 410.343 165.657C411.843 167.157 413.878 168 416 168C418.122 168 420.157 167.157 421.657 165.657C423.157 164.157 424 162.122 424 160V128ZM416 184C413.878 184 411.843 184.843 410.343 186.343C408.843 187.843 408 189.878 408 192V208C408 210.122 408.843 212.157 410.343 213.657C411.843 215.157 413.878 216 416 216C418.122 216 420.157 215.157 421.657 213.657C423.157 212.157 424 210.122 424 208V192C424 189.878 423.157 187.843 421.657 186.343C420.157 184.843 418.122 184 416 184ZM424 320V336C424 338.122 424.843 340.157 426.343 341.657C427.843 343.157 429.878 344 432 344C434.122 344 436.157 343.157 437.657 341.657C439.157 340.157 440 338.122 440 336V320C440 317.878 439.157 315.843 437.657 314.343C436.157 312.843 434.122 312 432 312C429.878 312 427.843 312.843 426.343 314.343C424.843 315.843 424 317.878 424 320ZM464 272C461.878 272 459.843 272.843 458.343 274.343C456.843 275.843 456 277.878 456 280V320C456 322.122 456.843 324.157 458.343 325.657C459.843 327.157 461.878 328 464 328C466.122 328 468.157 327.157 469.657 325.657C471.157 324.157 472 322.122 472 320V280C472 277.878 471.157 275.843 469.657 274.343C468.157 272.843 466.122 272 464 272ZM288 24V40C288 42.1217 288.843 44.1566 290.343 45.6569C291.843 47.1571 293.878 48 296 48C298.122 48 300.157 47.1571 301.657 45.6569C303.157 44.1566 304 42.1217 304 40V24C304 21.8783 303.157 19.8434 301.657 18.3431C300.157 16.8429 298.122 16 296 16C293.878 16 291.843 16.8429 290.343 18.3431C288.843 19.8434 288 21.8783 288 24V24ZM264 32C261.878 32 259.843 32.8429 258.343 34.3431C256.843 35.8434 256 37.8783 256 40V56C256 58.1217 256.843 60.1566 258.343 61.6569C259.843 63.1571 261.878 64 264 64C266.122 64 268.157 63.1571 269.657 61.6569C271.157 60.1566 272 58.1217 272 56V40C272 37.8783 271.157 35.8434 269.657 34.3431C268.157 32.8429 266.122 32 264 32V32Z" fill="url(#paint0_linear_18_91166)"/>
<defs>
<linearGradient id="paint0_linear_18_91166" x1="67.382" y1="514.541" x2="440.618" y2="141.305" gradientUnits="userSpaceOnUse">
<stop stop-color="#41DFD0"/>
<stop offset="1" stop-color="#EE83EF"/>
</linearGradient>
</defs>
</svg>
