<?xml version="1.0" encoding="UTF-8" standalone="no"?> <svg id="Layer_1" data-name="Layer 1" xmlns="http://www.w3.org/2000/svg" xmlns:xlink="http://www.w3.org/1999/xlink" viewBox="0 0 64 64"><defs><style>.cls-1{fill:url(#linear-gradient);}.cls-2{fill:url(#linear-gradient-3);}.cls-3{fill:url(#linear-gradient-4);}.cls-4{fill:url(#linear-gradient-5);}.cls-5{fill:url(#linear-gradient-8);}.cls-6{fill:url(#linear-gradient-10);}.cls-7{fill:url(#linear-gradient-11);}</style><linearGradient id="linear-gradient" x1="23.69" y1="2.06" x2="64.57" y2="38.06" gradientUnits="userSpaceOnUse"><stop offset="0" stop-color="#15b3ff"/><stop offset="1" stop-color="#e200e9"/></linearGradient><linearGradient id="linear-gradient-3" x1="10.5" y1="17.04" x2="51.38" y2="53.04" xlink:href="#linear-gradient"/><linearGradient id="linear-gradient-4" x1="-0.73" y1="29.79" x2="40.14" y2="65.79" xlink:href="#linear-gradient"/><linearGradient id="linear-gradient-5" x1="3.89" y1="24.55" x2="44.76" y2="60.55" xlink:href="#linear-gradient"/><linearGradient id="linear-gradient-8" x1="11.79" y1="15.58" x2="52.67" y2="51.58" xlink:href="#linear-gradient"/><linearGradient id="linear-gradient-10" x1="10.53" y1="17" x2="51.41" y2="53" xlink:href="#linear-gradient"/><linearGradient id="linear-gradient-11" x1="10.24" y1="17.34" x2="51.11" y2="53.34" xlink:href="#linear-gradient"/></defs><title>Badminton_2</title><path class="cls-1" d="M53.39,25.75c-2.3,3.3-6.24,5.8-10.36,5.61A7.62,7.62,0,0,1,35.64,24c-.19-4.13,2.31-8,5.61-10.36s8.13-3.24,11.52-.54C56.71,16.21,56.06,22,53.39,25.75Z"/><path class="cls-1" d="M53.39,25.75c-2.3,3.3-6.24,5.8-10.36,5.61A7.62,7.62,0,0,1,35.64,24c-.19-4.13,2.31-8,5.61-10.36s8.13-3.24,11.52-.54C56.71,16.21,56.06,22,53.39,25.75Z"/><path class="cls-2" d="M38.19,39.78l-1.41,1.41L32,36.41l-4.78,4.78-1.41-1.41L30.58,35l-3.74-3.74a9.53,9.53,0,0,0,1.42-1.42L32,33.58l3.74-3.74a9.53,9.53,0,0,0,1.42,1.42L33.42,35Z"/><polygon class="cls-3" points="20.86 43.32 23.68 46.14 18.03 51.8 15.2 48.97 20.86 43.32"/><path class="cls-4" d="M26.51,43.31,25.1,44.73,22.27,41.9l1.42-1.41Z"/><polygon class="cls-3" points="20.86 43.32 23.68 46.14 18.03 51.8 15.2 48.97 20.86 43.32"/><path class="cls-4" d="M26.51,43.31,25.1,44.73,22.27,41.9l1.42-1.41Z"/><path class="cls-5" d="M26.17,29.17c-3,3-7.87,2.61-11.3.55A13,13,0,0,1,8.44,20,7.69,7.69,0,0,1,15,11.51c4.33-.61,8.6,1.92,11.06,5.35S29.56,25.78,26.17,29.17Z"/><path class="cls-5" d="M26.17,29.17c-3,3-7.87,2.61-11.3.55A13,13,0,0,1,8.44,20,7.69,7.69,0,0,1,15,11.51c4.33-.61,8.6,1.92,11.06,5.35S29.56,25.78,26.17,29.17Z"/><path class="cls-6" d="M41.73,41.9,38.9,44.73l-1.41-1.42,2.82-2.82Z"/><polygon class="cls-7" points="48.8 48.97 45.97 51.8 40.32 46.14 43.14 43.32 48.8 48.97"/><path class="cls-6" d="M41.73,41.9,38.9,44.73l-1.41-1.42,2.82-2.82Z"/><polygon class="cls-7" points="48.8 48.97 45.97 51.8 40.32 46.14 43.14 43.32 48.8 48.97"/></svg>