<?xml version="1.0" encoding="UTF-8" standalone="no"?> <svg xmlns="http://www.w3.org/2000/svg" xmlns:xlink="http://www.w3.org/1999/xlink" viewBox="0 0 64 64"><defs><style>.cls-1{fill:url(#linear-gradient);}.cls-2{fill:url(#linear-gradient-2);}.cls-3{fill:url(#linear-gradient-3);}.cls-4{fill:url(#linear-gradient-4);}</style><linearGradient id="linear-gradient" x1="3" y1="32" x2="61" y2="32" gradientUnits="userSpaceOnUse"><stop offset="0" stop-color="#17a6d7"/><stop offset="1" stop-color="#9d31fe"/></linearGradient><linearGradient id="linear-gradient-2" x1="12" y1="47.49" x2="52" y2="47.49" xlink:href="#linear-gradient"/><linearGradient id="linear-gradient-3" x1="38.16" y1="50.14" x2="48.01" y2="50.14" xlink:href="#linear-gradient"/><linearGradient id="linear-gradient-4" x1="16.35" y1="50.14" x2="26.21" y2="50.14" xlink:href="#linear-gradient"/></defs><g id="Layer_45" data-name="Layer 45"><path class="cls-1" d="M60.31,12.05l-28-9a.94.94,0,0,0-.62,0l-28,9A1,1,0,0,0,3,13V60a1,1,0,0,0,1,1H9.44a1,1,0,0,0,1-1V32.48H53.56V60a1,1,0,0,0,1,1H60a1,1,0,0,0,1-1V13A1,1,0,0,0,60.31,12.05ZM10.44,23.24H53.56v2.62H10.44Zm43.12-2H10.44V18.62H53.56ZM10.44,30.48V27.86H53.56v2.62ZM59,59H55.56V17.62a1,1,0,0,0-1-1H9.44a1,1,0,0,0-1,1V59H5V13.73L32,5.05l27,8.68Z"/><path class="cls-2" d="M51,38.88H46.67a.93.93,0,0,0-.56.2L45.8,37.6A4.91,4.91,0,0,0,41,34H23a4.92,4.92,0,0,0-4.78,3.65l-.3,1.43a.93.93,0,0,0-.56-.2H13a1,1,0,0,0-1,1v2.74a1,1,0,0,0,.84,1l4,.66,0,.17A5.34,5.34,0,0,0,14,48.7l-.37,4.12a.14.14,0,0,1,0,.09v5.47A2.61,2.61,0,0,0,16.19,61h3.95a2.67,2.67,0,0,0,2.61-3h18.5a2.67,2.67,0,0,0,2.61,3h4a2.61,2.61,0,0,0,2.61-2.6V57c0-.06,0-4,0-4.1s-.37-4.1-.36-4.16a5.34,5.34,0,0,0-2.81-4.27l0-.17,4-.66a1,1,0,0,0,.84-1V39.88A1,1,0,0,0,51,38.88ZM16.33,42.15,14,41.77v-.89h2.33Zm3.81-4A2.9,2.9,0,0,1,23,36H41a2.89,2.89,0,0,1,2.82,2.06l1.2,5.7H19ZM27.78,56v-.78h8.44V56Zm20.64-3v5.43a.6.6,0,0,1-.61.6h-4c-.58,0-.65-.56-.61-1h1.22a1,1,0,0,0,0-2H38.22V54.18a1,1,0,0,0-1-1H26.78a1,1,0,0,0-1,1V56H19.53a1,1,0,0,0,0,2h1.22c0,.46,0,1-.61,1H16.19a.6.6,0,0,1-.61-.6V53l.36-4.07a3.39,3.39,0,0,1,3.4-3.12H44.66a3.39,3.39,0,0,1,3.4,3.12ZM50,41.77l-2.33.38V40.88H50Z"/><path class="cls-3" d="M44.94,47.3l-5.16,1c-2.92.8-1.51,4.74,1.13,4.66h4.37C49.13,52.88,48.82,46.92,44.94,47.3Zm.82,2.16c.55.46.24,1.56-.48,1.54H40.91a.85.85,0,0,1-.75-.54.12.12,0,0,1,0-.16l5.09-1A.82.82,0,0,1,45.76,49.46Z"/><path class="cls-4" d="M24.58,48.34l-5.16-1-.11,0c-3.81-.2-4,5.61-.23,5.72h4.37C26.09,53.07,27.5,49.14,24.58,48.34Zm-.38,2.12a.83.83,0,0,1-.75.54H19.08c-1,0-1-1.72,0-1.73l5.1,1A.14.14,0,0,1,24.2,50.46Z"/></g></svg>