<?xml version="1.0" encoding="UTF-8" standalone="no"?> <svg width="512" height="512" viewBox="0 0 512 512" fill="none" xmlns="http://www.w3.org/2000/svg">
<path d="M201.183 128.619L243.626 76.8L254.295 85.54L213.376 138.602L201.183 128.619ZM191.939 114.655L228.032 70.593L209.145 68.4L184.631 98.328L191.939 114.655ZM160.039 81.547C160.195 83.1214 160.815 84.6141 161.82 85.8363C162.825 87.0585 164.17 87.9553 165.684 88.4133C167.198 88.8713 168.815 88.87 170.328 88.4095C171.842 87.9489 173.185 87.0498 174.188 85.826L174.907 84.948L194.467 61.07C195.133 60.2572 195.632 59.3213 195.936 58.3156C196.24 57.31 196.343 56.2543 196.239 55.2089C196.135 54.1634 195.826 53.1487 195.33 52.2226C194.834 51.2965 194.16 50.4772 193.348 49.8115C192.535 49.1457 191.599 48.6466 190.593 48.3426C189.588 48.0385 188.532 47.9356 187.486 48.0395C186.441 48.1435 185.426 48.4523 184.5 48.9484C183.574 49.4445 182.755 50.1182 182.089 50.931L161.812 75.686C160.942 76.7454 160.362 78.0117 160.126 79.362C160.143 79.573 160.158 79.784 160.158 80C160.155 80.4621 160.113 80.9231 160.031 81.378C160.036 81.434 160.034 81.491 160.04 81.547H160.039ZM433.539 212.688C438.307 214.867 442.72 217.753 446.627 221.248C445.648 214.064 444.141 206.962 442.117 200H437.766L433.539 212.688ZM412 240C417.302 240.006 422.386 242.115 426.135 245.865C429.885 249.614 431.994 254.698 432 260V288H448V260C448.004 250.796 444.483 241.94 438.16 235.252C431.837 228.563 423.193 224.551 414.003 224.039C404.813 223.526 395.776 226.554 388.749 232.498C381.723 238.442 377.239 246.852 376.221 256H392.4C393.329 251.486 395.785 247.43 399.355 244.515C402.925 241.601 407.391 240.006 412 240V240ZM420 184H460C461.061 184 462.078 183.579 462.828 182.828C463.579 182.078 464 181.061 464 180C464 178.939 463.579 177.922 462.828 177.172C462.078 176.421 461.061 176 460 176H420C418.939 176 417.922 176.421 417.172 177.172C416.421 177.922 416 178.939 416 180C416 181.061 416.421 182.078 417.172 182.828C417.922 183.579 418.939 184 420 184ZM472 304H40C37.8783 304 35.8434 304.843 34.3431 306.343C32.8429 307.843 32 309.878 32 312C32 314.122 32.8429 316.157 34.3431 317.657C35.8434 319.157 37.8783 320 40 320H472C474.122 320 476.157 319.157 477.657 317.657C479.157 316.157 480 314.122 480 312C480 309.878 479.157 307.843 477.657 306.343C476.157 304.843 474.122 304 472 304ZM51.636 336H460.362C450.851 361.885 443.945 388.654 439.747 415.909L434.041 453C433.104 459.283 429.935 465.017 425.113 469.153C420.292 473.289 414.142 475.55 407.79 475.52H104.21C97.8579 475.55 91.7078 473.289 86.8866 469.153C82.0655 465.017 78.896 459.283 77.959 453L72.253 415.91C68.054 388.654 61.1475 361.885 51.636 336V336ZM352 360C352 362.122 352.843 364.157 354.343 365.657C355.843 367.157 357.878 368 360 368H400C402.122 368 404.157 367.157 405.657 365.657C407.157 364.157 408 362.122 408 360C408 357.878 407.157 355.843 405.657 354.343C404.157 352.843 402.122 352 400 352H360C357.878 352 355.843 352.843 354.343 354.343C352.843 355.843 352 357.878 352 360ZM304 360C304 362.122 304.843 364.157 306.343 365.657C307.843 367.157 309.878 368 312 368H328C330.122 368 332.157 367.157 333.657 365.657C335.157 364.157 336 362.122 336 360C336 357.878 335.157 355.843 333.657 354.343C332.157 352.843 330.122 352 328 352H312C309.878 352 307.843 352.843 306.343 354.343C304.843 355.843 304 357.878 304 360ZM88 120.971C87.9999 114.54 89.2664 108.172 91.7274 102.23C94.1884 96.2889 97.7956 90.8903 102.343 86.3429C106.89 81.7955 112.289 78.1884 118.23 75.7274C124.172 73.2664 130.54 71.9998 136.971 72H145.649C146.567 69.6646 147.844 67.4873 149.435 65.547L157.255 56H132.284C116.296 56.0002 100.962 62.3516 89.6571 73.657C78.3517 84.9624 72.0003 100.296 72 116.284V288H88V120.971ZM240 224C237.878 224 235.843 224.843 234.343 226.343C232.843 227.843 232 229.878 232 232V264C232 266.122 232.843 268.157 234.343 269.657C235.843 271.157 237.878 272 240 272C242.122 272 244.157 271.157 245.657 269.657C247.157 268.157 248 266.122 248 264V232C248 229.878 247.157 227.843 245.657 226.343C244.157 224.843 242.122 224 240 224ZM248 184C248 181.878 247.157 179.843 245.657 178.343C244.157 176.843 242.122 176 240 176C237.878 176 235.843 176.843 234.343 178.343C232.843 179.843 232 181.878 232 184V208C232 210.122 232.843 212.157 234.343 213.657C235.843 215.157 237.878 216 240 216C242.122 216 244.157 215.157 245.657 213.657C247.157 212.157 248 210.122 248 208V184ZM272 264C274.122 264 276.157 263.157 277.657 261.657C279.157 260.157 280 258.122 280 256V224C280 221.878 279.157 219.843 277.657 218.343C276.157 216.843 274.122 216 272 216C269.878 216 267.843 216.843 266.343 218.343C264.843 219.843 264 221.878 264 224V256C264 258.122 264.843 260.157 266.343 261.657C267.843 263.157 269.878 264 272 264ZM272 208C274.122 208 276.157 207.157 277.657 205.657C279.157 204.157 280 202.122 280 200V184C280 181.878 279.157 179.843 277.657 178.343C276.157 176.843 274.122 176 272 176C269.878 176 267.843 176.843 266.343 178.343C264.843 179.843 264 181.878 264 184V200C264 202.122 264.843 204.157 266.343 205.657C267.843 207.157 269.878 208 272 208ZM304 256C306.122 256 308.157 255.157 309.657 253.657C311.157 252.157 312 250.122 312 248V216C312 213.878 311.157 211.843 309.657 210.343C308.157 208.843 306.122 208 304 208C301.878 208 299.843 208.843 298.343 210.343C296.843 211.843 296 213.878 296 216V248C296 250.122 296.843 252.157 298.343 253.657C299.843 255.157 301.878 256 304 256ZM304 200C306.122 200 308.157 199.157 309.657 197.657C311.157 196.157 312 194.122 312 192V167.765C312 165.643 311.157 163.608 309.657 162.108C308.157 160.608 306.122 159.765 304 159.765C301.878 159.765 299.843 160.608 298.343 162.108C296.843 163.608 296 165.643 296 167.765V192C296 194.122 296.843 196.157 298.343 197.657C299.843 199.157 301.878 200 304 200Z" fill="url(#paint0_linear_1_10365)"/>
<defs>
<linearGradient id="paint0_linear_1_10365" x1="73.235" y1="455.61" x2="407.249" y2="121.595" gradientUnits="userSpaceOnUse">
<stop stop-color="#41DFD0"/>
<stop offset="1" stop-color="#EE83EF"/>
</linearGradient>
</defs>
</svg>
