<?xml version="1.0" encoding="utf-8"?>
<!-- Generator: Adobe Illustrator 23.0.3, SVG Export Plug-In . SVG Version: 6.00 Build 0)  -->
<svg version="1.1" id="Layer_1" xmlns="http://www.w3.org/2000/svg" xmlns:xlink="http://www.w3.org/1999/xlink" x="0px" y="0px"
	 viewBox="0 0 441 441" style="enable-background:new 0 0 441 441;" xml:space="preserve">
<style type="text/css">
	.st0{fill:url(#SVGID_1_);}
</style>
<linearGradient id="SVGID_1_" gradientUnits="userSpaceOnUse" x1="13.9896" y1="219.4108" x2="427.4268" y2="219.4108">
	<stop  offset="0" style="stop-color:#804D85"/>
	<stop  offset="1" style="stop-color:#41BDBD"/>
</linearGradient>
<path class="st0" d="M424.3,124.1c4.3-4.5,4.1-11.6-0.4-15.8c-53.6-51.2-125.8-78.9-203.4-78.2c-37.1,0.3-73.8,7.4-108.3,20.9
	C77,64.6,44.8,85.1,17.5,111.2c-2.9,2.8-4.1,6.9-3.2,10.8c0.9,3.9,3.9,7,7.8,8.1c3.9,1.1,8,0.1,10.9-2.7
	c49.7-47.5,116.5-74.1,187.9-74.9c1,0,2,0,3,0c70.5,0,136,25.5,184.6,72C412.9,128.7,420,128.6,424.3,124.1z M354.5,211.2
	c4.3-4.5,4.2-11.6-0.3-15.9c-35.5-34.2-82.9-52.5-133.5-51.7c-49.8,0.7-97.5,20.2-133.4,54.6c-4.5,4.3-4.6,11.4-0.4,15.9
	c4.3,4.5,11.4,4.6,15.9,0.4c31.9-30.5,74.2-47.8,118.3-48.4c44.6-0.7,86.4,15.4,117.5,45.5C343.1,215.7,350.2,215.6,354.5,211.2z
	 M288.3,295.3c4.3-4.5,4.1-11.6-0.4-15.8c-17.7-16.9-41.6-25.7-67.3-24.9c-24.8,0.7-48.5,10.6-66.5,27.8c-4.5,4.3-4.6,11.4-0.4,15.9
	c4.3,4.5,11.4,4.6,15.8,0.4c14.1-13.2,32.5-20.9,51.8-21.6c19.6-0.7,37.8,6,51.1,18.7C276.9,299.9,284,299.7,288.3,295.3z
	 M263.1,366.4c0-23.4-19-42.4-42.4-42.4s-42.4,19-42.4,42.4c0,23.4,19,42.4,42.4,42.4C244.1,408.7,263.1,389.8,263.1,366.4z
	 M220.7,386.3c-11,0-19.9-8.9-19.9-19.9c0-11,8.9-19.9,19.9-19.9c11,0,19.9,8.9,19.9,19.9C240.6,377.4,231.7,386.3,220.7,386.3z"/>
</svg>
